inDegrees=yes
name=ik_l_comf_01-000_00_orientations
DataType=double
version=3
OpenSimVersion=4.5
endheader
time	pelvis_tilt	pelvis_list	pelvis_rotation	pelvis_tx	pelvis_ty	pelvis_tz	hip_flexion_r	hip_adduction_r	hip_rotation_r	knee_angle_r	knee_angle_r_beta	ankle_angle_r	subtalar_angle_r	mtp_angle_r	hip_flexion_l	hip_adduction_l	hip_rotation_l	knee_angle_l	knee_angle_l_beta	ankle_angle_l	subtalar_angle_l	mtp_angle_l	lumbar_extension	lumbar_bending	lumbar_rotation	arm_flex_r	arm_add_r	arm_rot_r	elbow_flex_r	pro_sup_r	wrist_flex_r	wrist_dev_r	arm_flex_l	arm_add_l	arm_rot_l	elbow_flex_l	pro_sup_l	wrist_flex_l	wrist_dev_l
45.2499999999985	105.4449728879127	17.74330554262659	-116.3781437946721	0	0.9399999999999999	0	-29.99650365269407	29.9975151709164	-39.99779725784089	0.004488048804404027	7.833122862704527e-05	-39.99611382959862	0	0	112.2683039690552	-49.99609281380268	39.99591591308247	67.78237912587333	1.183025690581565	-37.50339454857479	0	0	0	0	0	0	-14.19922762409115	0	74.87656651365215	45.00000473284083	0	0	0	-14.19922762409115	0	74.87656651365215	45.00000473284083	0	0
45.2749999999985	105.0055495434699	17.99085373617229	-116.5957148718606	0	0.9399999999999999	0	-29.99652449559303	29.99751201499902	-39.99777412908518	0.004563225022197337	7.964330114673486e-05	-39.99616140214673	0	0	111.2793996807724	-49.99614417664986	39.99578774361141	65.65332072239109	1.145866611473547	-35.69878983686694	0	0	0	0	0	0	-14.20147737841754	0	74.87721266931156	45.00000467601491	0	0	0	-14.20147737841754	0	74.87721266931156	45.00000467601491	0	0
45.2999999999985	104.7172045091715	18.41870099849572	-116.6142207968217	0	0.9399999999999999	0	-29.99654233352543	29.99752630626635	-39.99776794910098	0.004621762241694619	8.066496836192504e-05	-39.99620729157649	0	0	111.2296268161758	-49.99618573681158	39.99574035544606	64.23642837373959	1.121137174843262	-35.67769974200687	0	0	0	0	0	0	-14.2019725990519	0	74.87736091034047	45.00000466147609	0	0	0	-14.2019725990519	0	74.87736091034047	45.00000466147609	0	0
45.3249999999985	104.4286673548869	18.98088194611514	-116.2944819722957	0	0.9399999999999999	0	-29.99655207612503	29.99756761753866	-39.99777569229487	0.004697385881184379	8.198484986336257e-05	-39.99626168713635	0	0	112.5591356835827	-49.99620490543884	39.99577810931284	64.10267781614404	1.118802787236842	-39.16043751992292	0	0	0	0	0	0	-14.20245679830916	0	74.87750627271579	45.00000464714187	0	0	0	-14.20245679830916	0	74.87750627271579	45.00000464714187	0	0
45.3499999999985	104.1700493031949	19.3271666290633	-116.0496855377502	0	0.9399999999999999	0	-29.99655621940414	29.99759874526508	-39.99778298728022	0.004767975309622227	8.321686780670394e-05	-39.99630778117034	0	0	113.6725410039679	-49.99621173811324	39.99581219778445	66.31987826620382	1.157500235267085	-39.92487565231686	0	0	0	0	0	0	-14.20282103450181	0	74.87761527934495	45.00000463646978	0	0	0	-14.20282103450181	0	74.87761527934495	45.00000463646978	0	0
45.37499999999849	103.8762286534798	19.50548170505262	-115.8786127038927	0	0.9399999999999999	0	-29.9965578776449	29.99762375346591	-39.99778273161759	0.004848672164673368	8.462529362335096e-05	-39.99635097310631	0	0	114.862476533939	-49.99617355113864	39.9958370467502	69.20773883747084	1.207902910574219	-39.96437805261396	0	0	0	0	0	0	-14.20317889757158	0	74.87772220662274	45.00000462604331	0	0	0	-14.20317889757158	0	74.87772220662274	45.00000462604331	0	0
45.39999999999849	103.728198773597	19.55567280542633	-115.5874207003451	0	0.9399999999999999	0	-29.99654512117689	29.99764576488318	-39.99778596714013	0.004900495341901547	8.552977869482722e-05	-39.99638126769301	0	0	116.0202153379858	-49.99613609012867	39.99589023015377	72.2642957460632	1.261249892403735	-39.97593564805226	0	0	0	0	0	0	-14.20358770125235	0	74.87784430352986	45.00000461415738	0	0	0	-14.20358770125235	0	74.87784430352986	45.00000461415738	0	0
45.42499999999849	103.7160573120792	19.44461380715314	-115.2206257134626	0	0.9399999999999999	0	-29.99652581245722	29.99765928469654	-39.99779465165435	0.004924871244230872	8.595521844861851e-05	-39.99639863753696	0	0	116.6787353093592	-49.99613239969401	39.9959405591194	74.6725678756094	1.303282170348331	-39.98033909088924	0	0	0	0	0	0	-14.20341943269487	0	74.87785255530622	45.00000460617954	0	0	0	-14.20341943269487	0	74.87785255530622	45.00000460617954	0	0
45.44999999999849	103.8014045770979	19.20623227205649	-114.9251799410182	0	0.9399999999999999	0	-29.99650173756724	29.99766309370959	-39.99780491858162	0.004916479296394425	8.58087513282169e-05	-39.99640542967834	0	0	116.6616556935132	-49.99616373603152	39.99597780697865	76.18803171839673	1.329732004099896	-39.98208766064784	0	0	0	0	0	0	-14.20282269364368	0	74.87773900051489	45.00000460875582	0	0	0	-14.20282269364368	0	74.87773900051489	45.00000460875582	0	0
45.47499999999849	103.954822141227	18.89458466698499	-114.7885522465995	0	0.9399999999999999	0	-29.99647883839516	29.99765391258975	-39.99781570010882	0.004880771893030603	8.518553957218051e-05	-39.99640453427877	0	0	115.8792710843426	-49.9962313147694	39.9959914863844	76.60602202953042	1.337027311270615	-39.98196506121986	0	0	0	0	0	0	-14.20218072944204	0	74.87760379865492	45.00000461444367	0	0	0	-14.20218072944204	0	74.87760379865492	45.00000461444367	0	0
45.49999999999849	104.1418264395122	18.55855647410055	-114.6714479319438	0	0.9399999999999999	0	-29.99645871993065	29.99764203811984	-39.99782711998084	0.004842937170829585	8.452519909819534e-05	-39.99640228357561	0	0	114.9378422076943	-49.99630278515392	39.99599683565664	76.73251718740556	1.339235068263366	-39.98118385832004	0	0	0	0	0	0	-14.20163464262865	0	74.87749367090623	45.00000461813857	0	0	0	-14.20163464262865	0	74.87749367090623	45.00000461813857	0	0
45.52499999999849	104.237192966163	18.33577334200596	-114.2969365015451	0	0.9399999999999999	0	-29.9964302989485	29.99763416517942	-39.99783268699071	0.004841871786225304	8.450660462905058e-05	-39.99640915680399	0	0	114.5307674191439	-49.99634175412085	39.9960213336159	77.58181544040372	1.354058119109619	-39.98126166216333	0	0	0	0	0	0	-14.20106361669166	0	74.87738025820641	45.00000462156419	0	0	0	-14.20106361669166	0	74.87738025820641	45.00000462156419	0	0
45.54999999999848	104.3102264871038	18.35990937049817	-113.7053123916053	0	0.9399999999999999	0	-29.99640035365316	29.99763661203741	-39.99783223850593	0.004864134835694417	8.489516814382099e-05	-39.99642419653656	0	0	114.7494826848186	-49.99635150590618	39.99606502512849	79.48770030811748	1.387322085215161	-39.98257285905201	0	0	0	0	0	0	-14.20055760878603	0	74.87728144316237	45.00000462356275	0	0	0	-14.20055760878603	0	74.87728144316237	45.00000462356275	0	0
45.57499999999848	104.4111283218205	18.45200156802573	-113.1700631094367	0	0.9399999999999999	0	-29.99637803216527	29.99764445689315	-39.99783590994218	0.004880825790736435	8.518648026460653e-05	-39.99643847722329	0	0	115.2129559159631	-49.996355722584	39.9961165766942	81.85375843111262	1.428617589754983	-39.98384215831754	0	0	0	0	0	0	-14.20043908052788	0	74.87729455949867	45.00000461573607	0	0	0	-14.20043908052788	0	74.87729455949867	45.00000461573607	0	0
45.59999999999848	104.6097643086995	18.41464641009628	-112.8438253285255	0	0.9399999999999999	0	-29.99635995437153	29.99765066258811	-39.99784964520404	0.004863782651128275	8.488902136356709e-05	-39.99644264142866	0	0	115.3340382651543	-49.9963904474381	39.99616623074375	84.07333573899034	1.467356521780001	-39.98446048409346	0	0	0	0	0	0	-14.20015121314189	0	74.87726397403699	45.00000461129719	0	0	0	-14.20015121314189	0	74.87726397403699	45.00000461129719	0	0
45.62499999999848	104.9017221944502	18.21356937712977	-112.7147932831602	0	0.9399999999999999	0	-29.99634356496305	29.99764735108518	-39.99787044285269	0.004816986581858937	8.40722758778258e-05	-39.99643765661546	0	0	114.8141698889589	-49.99646059691897	39.99620448530676	85.83973226881817	1.498185957121299	-39.98440728957193	0	0	0	0	0	0	-14.19980305634399	0	74.87721550345927	45.00000460859295	0	0	0	-14.19980305634399	0	74.87721550345927	45.00000460859295	0	0
45.64999999999848	105.1550549201486	17.98686910724811	-112.5844014490628	0	0.9399999999999999	0	-29.99632472407979	29.99762953518301	-39.99788915981175	0.004775157250746477	8.334221632600647e-05	-39.99643436923498	0	0	113.9100008549438	-49.99653589431404	39.99623254936008	87.18116812608802	1.521598429534971	-39.98397720450365	0	0	0	0	0	0	-14.19942995815504	0	74.87715564108602	45.00000460749099	0	0	0	-14.19942995815504	0	74.87715564108602	45.00000460749099	0	0
